# xmcd CD database file generated by libcdaudio 0.99.4
# 
# Track frame offsets:
#       182
#       9472
#       23310
#       36110
#       49625
#       60245
#       67665
#       80952
#       92135
#       104002
#       115707
#       130550
#       146007
#       159272
#       171400
# 
# Disc length: 2425 seconds
# 
# Revision: 1
# Processed by: cddbd v1.4PL0 Copyright (c) Steve Scherf et al.
# Submitted via: libcdaudio 0.99.4
# 
DISCID=b409770f
DTITLE=Sonny Boy Williamson II - Chicago Blues - Vol.2 disc 1
DYEAR=1900
DGENRE=
TTITLE0=One Way Out
TTITLE1=Don't Lose Your Eye
TTITLE2=Keep It To Yourself
TTITLE3=Sad To Be Alone
TTITLE4=Let Your Conscience Be Your Guide
TTITLE5=I Wonder Why
TTITLE6=I Never Do Wrong
TTITLE7=I Don't Know
TTITLE8=Don't Start Me To Talkin'
TTITLE9=Bring It On Home
TTITLE10=Key To Your Door
TTITLE11=Cross My Heart
TTITLE12=Let Me Explain
TTITLE13=Stop Crying
TTITLE14=Fattening Frogs For Snakes
EXTD=
EXTT0=
EXTT1=
EXTT2=
EXTT3=
EXTT4=
EXTT5=
EXTT6=
EXTT7=
EXTT8=
EXTT9=
EXTT10=
EXTT11=
EXTT12=
EXTT13=
EXTT14=
PLAYORDER=
